<mxfile host="app.diagrams.net" modified="2022-08-16T10:01:04.953Z" agent="5.0 (Macintosh; Intel Mac OS X 10_15_7) AppleWebKit/537.36 (KHTML, like Gecko) Chrome/99.0.4844.74 Safari/537.36" etag="lWOk5t71DdCjOC84uMGU" version="20.2.2" type="github">
  <diagram id="MgfbqY4KK9ZvkzB4Hf7q" name="第 1 页">
    <mxGraphModel dx="786" dy="405" grid="1" gridSize="10" guides="1" tooltips="1" connect="1" arrows="1" fold="1" page="1" pageScale="1" pageWidth="827" pageHeight="1169" math="0" shadow="0">
      <root>
        <mxCell id="0" />
        <mxCell id="1" parent="0" />
        <mxCell id="W4b-Q92upJo6OQBO_38H-12" style="edgeStyle=orthogonalEdgeStyle;rounded=0;orthogonalLoop=1;jettySize=auto;html=1;exitX=1;exitY=0.5;exitDx=0;exitDy=0;entryX=0;entryY=0.5;entryDx=0;entryDy=0;" edge="1" parent="1" source="W4b-Q92upJo6OQBO_38H-1" target="W4b-Q92upJo6OQBO_38H-8">
          <mxGeometry relative="1" as="geometry" />
        </mxCell>
        <mxCell id="W4b-Q92upJo6OQBO_38H-13" style="edgeStyle=orthogonalEdgeStyle;rounded=0;orthogonalLoop=1;jettySize=auto;html=1;exitX=1;exitY=0.5;exitDx=0;exitDy=0;entryX=0;entryY=0.5;entryDx=0;entryDy=0;" edge="1" parent="1" source="W4b-Q92upJo6OQBO_38H-1" target="W4b-Q92upJo6OQBO_38H-7">
          <mxGeometry relative="1" as="geometry" />
        </mxCell>
        <mxCell id="W4b-Q92upJo6OQBO_38H-14" style="edgeStyle=orthogonalEdgeStyle;rounded=0;orthogonalLoop=1;jettySize=auto;html=1;exitX=1;exitY=0.5;exitDx=0;exitDy=0;entryX=0;entryY=0.5;entryDx=0;entryDy=0;" edge="1" parent="1" source="W4b-Q92upJo6OQBO_38H-1" target="W4b-Q92upJo6OQBO_38H-6">
          <mxGeometry relative="1" as="geometry" />
        </mxCell>
        <mxCell id="W4b-Q92upJo6OQBO_38H-15" style="edgeStyle=orthogonalEdgeStyle;rounded=0;orthogonalLoop=1;jettySize=auto;html=1;exitX=1;exitY=0.5;exitDx=0;exitDy=0;entryX=0;entryY=0.5;entryDx=0;entryDy=0;" edge="1" parent="1" source="W4b-Q92upJo6OQBO_38H-1" target="W4b-Q92upJo6OQBO_38H-4">
          <mxGeometry relative="1" as="geometry" />
        </mxCell>
        <mxCell id="W4b-Q92upJo6OQBO_38H-16" style="edgeStyle=orthogonalEdgeStyle;rounded=0;orthogonalLoop=1;jettySize=auto;html=1;exitX=1;exitY=0.5;exitDx=0;exitDy=0;entryX=0;entryY=0.5;entryDx=0;entryDy=0;" edge="1" parent="1" source="W4b-Q92upJo6OQBO_38H-1" target="W4b-Q92upJo6OQBO_38H-5">
          <mxGeometry relative="1" as="geometry" />
        </mxCell>
        <mxCell id="W4b-Q92upJo6OQBO_38H-17" style="edgeStyle=orthogonalEdgeStyle;rounded=0;orthogonalLoop=1;jettySize=auto;html=1;exitX=1;exitY=0.5;exitDx=0;exitDy=0;entryX=0;entryY=0.5;entryDx=0;entryDy=0;" edge="1" parent="1" source="W4b-Q92upJo6OQBO_38H-1" target="W4b-Q92upJo6OQBO_38H-9">
          <mxGeometry relative="1" as="geometry" />
        </mxCell>
        <mxCell id="W4b-Q92upJo6OQBO_38H-18" style="edgeStyle=orthogonalEdgeStyle;rounded=0;orthogonalLoop=1;jettySize=auto;html=1;exitX=1;exitY=0.5;exitDx=0;exitDy=0;entryX=0;entryY=0.5;entryDx=0;entryDy=0;" edge="1" parent="1" source="W4b-Q92upJo6OQBO_38H-1" target="W4b-Q92upJo6OQBO_38H-11">
          <mxGeometry relative="1" as="geometry" />
        </mxCell>
        <mxCell id="W4b-Q92upJo6OQBO_38H-19" style="edgeStyle=orthogonalEdgeStyle;rounded=0;orthogonalLoop=1;jettySize=auto;html=1;exitX=1;exitY=0.5;exitDx=0;exitDy=0;entryX=0;entryY=0.5;entryDx=0;entryDy=0;" edge="1" parent="1" source="W4b-Q92upJo6OQBO_38H-1" target="W4b-Q92upJo6OQBO_38H-10">
          <mxGeometry relative="1" as="geometry" />
        </mxCell>
        <mxCell id="W4b-Q92upJo6OQBO_38H-1" value="&amp;lt;mapper&amp;gt;" style="rounded=1;whiteSpace=wrap;html=1;" vertex="1" parent="1">
          <mxGeometry x="80" y="650" width="80" height="35" as="geometry" />
        </mxCell>
        <mxCell id="W4b-Q92upJo6OQBO_38H-26" style="edgeStyle=orthogonalEdgeStyle;rounded=0;orthogonalLoop=1;jettySize=auto;html=1;exitX=1;exitY=0.5;exitDx=0;exitDy=0;entryX=0;entryY=0.5;entryDx=0;entryDy=0;" edge="1" parent="1" source="W4b-Q92upJo6OQBO_38H-4" target="W4b-Q92upJo6OQBO_38H-21">
          <mxGeometry relative="1" as="geometry" />
        </mxCell>
        <mxCell id="W4b-Q92upJo6OQBO_38H-4" value="&amp;lt;select&amp;gt;" style="rounded=1;whiteSpace=wrap;html=1;" vertex="1" parent="1">
          <mxGeometry x="200" y="450" width="80" height="35" as="geometry" />
        </mxCell>
        <mxCell id="W4b-Q92upJo6OQBO_38H-27" style="edgeStyle=orthogonalEdgeStyle;rounded=0;orthogonalLoop=1;jettySize=auto;html=1;exitX=1;exitY=0.5;exitDx=0;exitDy=0;entryX=0;entryY=0.5;entryDx=0;entryDy=0;" edge="1" parent="1" source="W4b-Q92upJo6OQBO_38H-5" target="W4b-Q92upJo6OQBO_38H-23">
          <mxGeometry relative="1" as="geometry" />
        </mxCell>
        <mxCell id="W4b-Q92upJo6OQBO_38H-5" value="&amp;lt;insert&amp;gt;" style="rounded=1;whiteSpace=wrap;html=1;" vertex="1" parent="1">
          <mxGeometry x="200" y="500" width="80" height="35" as="geometry" />
        </mxCell>
        <mxCell id="W4b-Q92upJo6OQBO_38H-28" style="edgeStyle=orthogonalEdgeStyle;rounded=0;orthogonalLoop=1;jettySize=auto;html=1;exitX=1;exitY=0.5;exitDx=0;exitDy=0;" edge="1" parent="1" source="W4b-Q92upJo6OQBO_38H-6" target="W4b-Q92upJo6OQBO_38H-24">
          <mxGeometry relative="1" as="geometry" />
        </mxCell>
        <mxCell id="W4b-Q92upJo6OQBO_38H-6" value="&amp;lt;update&amp;gt;" style="rounded=1;whiteSpace=wrap;html=1;" vertex="1" parent="1">
          <mxGeometry x="200" y="550" width="80" height="35" as="geometry" />
        </mxCell>
        <mxCell id="W4b-Q92upJo6OQBO_38H-29" style="edgeStyle=orthogonalEdgeStyle;rounded=0;orthogonalLoop=1;jettySize=auto;html=1;exitX=1;exitY=0.5;exitDx=0;exitDy=0;entryX=0;entryY=0.5;entryDx=0;entryDy=0;" edge="1" parent="1" source="W4b-Q92upJo6OQBO_38H-7" target="W4b-Q92upJo6OQBO_38H-25">
          <mxGeometry relative="1" as="geometry" />
        </mxCell>
        <mxCell id="W4b-Q92upJo6OQBO_38H-7" value="&amp;lt;delete&amp;gt;" style="rounded=1;whiteSpace=wrap;html=1;" vertex="1" parent="1">
          <mxGeometry x="200" y="600" width="80" height="35" as="geometry" />
        </mxCell>
        <mxCell id="W4b-Q92upJo6OQBO_38H-31" style="edgeStyle=orthogonalEdgeStyle;rounded=0;orthogonalLoop=1;jettySize=auto;html=1;exitX=1;exitY=0.5;exitDx=0;exitDy=0;entryX=0;entryY=0.5;entryDx=0;entryDy=0;" edge="1" parent="1" source="W4b-Q92upJo6OQBO_38H-8" target="W4b-Q92upJo6OQBO_38H-30">
          <mxGeometry relative="1" as="geometry" />
        </mxCell>
        <mxCell id="W4b-Q92upJo6OQBO_38H-8" value="&amp;lt;sql&amp;gt;" style="rounded=1;whiteSpace=wrap;html=1;" vertex="1" parent="1">
          <mxGeometry x="200" y="650" width="80" height="35" as="geometry" />
        </mxCell>
        <mxCell id="W4b-Q92upJo6OQBO_38H-9" value="&amp;lt;cache&amp;gt;" style="rounded=1;whiteSpace=wrap;html=1;" vertex="1" parent="1">
          <mxGeometry x="200" y="700" width="80" height="35" as="geometry" />
        </mxCell>
        <mxCell id="W4b-Q92upJo6OQBO_38H-10" value="&amp;lt;cache-ref&amp;gt;" style="rounded=1;whiteSpace=wrap;html=1;" vertex="1" parent="1">
          <mxGeometry x="200" y="750" width="80" height="35" as="geometry" />
        </mxCell>
        <mxCell id="W4b-Q92upJo6OQBO_38H-11" value="&amp;lt;resultMap&amp;gt;" style="rounded=1;whiteSpace=wrap;html=1;" vertex="1" parent="1">
          <mxGeometry x="200" y="800" width="80" height="35" as="geometry" />
        </mxCell>
        <mxCell id="W4b-Q92upJo6OQBO_38H-21" value="&amp;nbsp; 映射查询语句，可以自定义参数、返回结果集等。" style="rounded=1;whiteSpace=wrap;html=1;align=left;" vertex="1" parent="1">
          <mxGeometry x="320" y="450" width="330" height="35" as="geometry" />
        </mxCell>
        <mxCell id="W4b-Q92upJo6OQBO_38H-23" value="&amp;nbsp; 映射插入语句，执行后返回一个整数，表示插入的条数。" style="rounded=1;whiteSpace=wrap;html=1;align=left;" vertex="1" parent="1">
          <mxGeometry x="320" y="500" width="330" height="35" as="geometry" />
        </mxCell>
        <mxCell id="W4b-Q92upJo6OQBO_38H-24" value="&amp;nbsp; 映射更新语句，执行后返回一个整数，表示更新的条数。" style="rounded=1;whiteSpace=wrap;html=1;align=left;" vertex="1" parent="1">
          <mxGeometry x="320" y="550" width="330" height="35" as="geometry" />
        </mxCell>
        <mxCell id="W4b-Q92upJo6OQBO_38H-25" value="&amp;nbsp; 映射删除语句，执行后返回一个整数，表示删除的条数。" style="rounded=1;whiteSpace=wrap;html=1;align=left;" vertex="1" parent="1">
          <mxGeometry x="320" y="600" width="330" height="35" as="geometry" />
        </mxCell>
        <mxCell id="W4b-Q92upJo6OQBO_38H-30" value="&amp;nbsp; 用于定义一部分SQL，然后可能被其他语句引用。" style="rounded=1;whiteSpace=wrap;html=1;align=left;" vertex="1" parent="1">
          <mxGeometry x="320" y="650" width="330" height="35" as="geometry" />
        </mxCell>
        <mxCell id="W4b-Q92upJo6OQBO_38H-32" value="&amp;nbsp; 给定命名空间的缓存配置。" style="rounded=1;whiteSpace=wrap;html=1;align=left;" vertex="1" parent="1">
          <mxGeometry x="320" y="700" width="330" height="35" as="geometry" />
        </mxCell>
        <mxCell id="W4b-Q92upJo6OQBO_38H-33" value="&amp;nbsp; 其他命名空间的缓存配置的引用。" style="rounded=1;whiteSpace=wrap;html=1;align=left;" vertex="1" parent="1">
          <mxGeometry x="320" y="750" width="330" height="35" as="geometry" />
        </mxCell>
        <mxCell id="W4b-Q92upJo6OQBO_38H-34" value="&amp;nbsp; 用于描述如何从数据库结果集中加载对象。" style="rounded=1;whiteSpace=wrap;html=1;align=left;" vertex="1" parent="1">
          <mxGeometry x="320" y="800" width="330" height="35" as="geometry" />
        </mxCell>
      </root>
    </mxGraphModel>
  </diagram>
</mxfile>
